<svg xmlns="http://www.w3.org/2000/svg" width="3840" height="3840"><path d="M2644,2089L2256,2812L2577,2986Z" fill="#4c98c9" stroke="#4c98c9" stroke-width="1.51"/><path d="M2256,2812L2453,3492L2577,2986Z" fill="#4590c6" stroke="#4590c6" stroke-width="1.51"/><path d="M1311,2542L1927,3029L2256,2812Z" fill="#5aa0ce" stroke="#5aa0ce" stroke-width="1.51"/><path d="M2577,2986L3609,2419L2644,2089Z" fill="#4592c6" stroke="#4592c6" stroke-width="1.51"/><path d="M2453,3492L3380,3104L2577,2986Z" fill="#3987c1" stroke="#3987c1" stroke-width="1.51"/><path d="M1927,3029L2453,3492L2256,2812Z" fill="#4b93c7" stroke="#4b93c7" stroke-width="1.51"/><path d="M3380,3104L3609,2419L2577,2986Z" fill="#3987c1" stroke="#3987c1" stroke-width="1.51"/><path d="M2644,2089L1670,1917L2256,2812Z" fill="#5da3d0" stroke="#5da3d0" stroke-width="1.51"/><path d="M3609,2419L3552,1814L2644,2089Z" fill="#4b92c7" stroke="#4b92c7" stroke-width="1.51"/><path d="M2644,2089L2458,978L1670,1917Z" fill="#6cacd4" stroke="#6cacd4" stroke-width="1.51"/><path d="M1670,1917L1311,2542L2256,2812Z" fill="#66a8d2" stroke="#66a8d2" stroke-width="1.51"/><path d="M1995,3947L2521,3908L2453,3492Z" fill="#3f83be" stroke="#3f83be" stroke-width="1.51"/><path d="M2453,3492L2521,3908L3380,3104Z" fill="#3481be" stroke="#3481be" stroke-width="1.51"/><path d="M1995,3947L2453,3492L1927,3029Z" fill="#478dc4" stroke="#478dc4" stroke-width="1.51"/><path d="M3552,1814L3140,1209L2644,2089Z" fill="#5a9ccc" stroke="#5a9ccc" stroke-width="1.51"/><path d="M1267,3704L1995,3947L1927,3029Z" fill="#5392c7" stroke="#5392c7" stroke-width="1.51"/><path d="M3140,1209L2458,978L2644,2089Z" fill="#6aa8d2" stroke="#6aa8d2" stroke-width="1.51"/><path d="M1670,1917L1087,1926L1311,2542Z" fill="#79b4d8" stroke="#79b4d8" stroke-width="1.51"/><path d="M1339,1290L1087,1926L1670,1917Z" fill="#84bbdb" stroke="#84bbdb" stroke-width="1.51"/><path d="M3380,3104L4215,3055L3609,2419Z" fill="#307bba" stroke="#307bba" stroke-width="1.51"/><path d="M3609,2419L4128,1749L3552,1814Z" fill="#4889c2" stroke="#4889c2" stroke-width="1.51"/><path d="M4361,3850L4215,3055L3380,3104Z" fill="#236db1" stroke="#236db1" stroke-width="1.51"/><path d="M4393,2297L4128,1749L3609,2419Z" fill="#4181bb" stroke="#4181bb" stroke-width="1.51"/><path d="M3552,1814L3441,728L3140,1209Z" fill="#679dcc" stroke="#679dcc" stroke-width="1.51"/><path d="M2458,978L1780,1031L1670,1917Z" fill="#7eb7da" stroke="#7eb7da" stroke-width="1.51"/><path d="M455,3508L1267,3704L1311,2542Z" fill="#70a3cf" stroke="#70a3cf" stroke-width="1.51"/><path d="M1311,2542L1267,3704L1927,3029Z" fill="#629fce" stroke="#629fce" stroke-width="1.51"/><path d="M1780,1031L1339,1290L1670,1917Z" fill="#86bcdc" stroke="#86bcdc" stroke-width="1.51"/><path d="M4215,3055L4393,2297L3609,2419Z" fill="#3479b7" stroke="#3479b7" stroke-width="1.51"/><path d="M1267,3704L1413,3996L1995,3947Z" fill="#578ec3" stroke="#578ec3" stroke-width="1.51"/><path d="M2988,4847L3408,4372L2521,3908Z" fill="#276cae" stroke="#276cae" stroke-width="1.51"/><path d="M3140,1209L2449,542L2458,978Z" fill="#7ab0d6" stroke="#7ab0d6" stroke-width="1.51"/><path d="M2458,978L2449,542L1780,1031Z" fill="#86b9db" stroke="#86b9db" stroke-width="1.51"/><path d="M4128,1749L3441,728L3552,1814Z" fill="#5d94c7" stroke="#5d94c7" stroke-width="1.51"/><path d="M2521,3908L3408,4372L3380,3104Z" fill="#2a75b6" stroke="#2a75b6" stroke-width="1.51"/><path d="M2988,4847L2521,3908L1903,5120Z" fill="#3470ac" stroke="#3470ac" stroke-width="1.51"/><path d="M3441,728L2449,542L3140,1209Z" fill="#79abd3" stroke="#79abd3" stroke-width="1.51"/><path d="M1262,158L454,1249L1339,1290Z" fill="#a5cde3" stroke="#a5cde3" stroke-width="1.51"/><path d="M4128,1749L4383,1478L3441,728Z" fill="#5e8fc3" stroke="#5e8fc3" stroke-width="1.51"/><path d="M4393,2297L4383,1478L4128,1749Z" fill="#4881ba" stroke="#4881ba" stroke-width="1.51"/><path d="M3408,4372L4361,3850L3380,3104Z" fill="#1d6aaf" stroke="#1d6aaf" stroke-width="1.51"/><path d="M4215,3055L5032,2684L4393,2297Z" fill="#2e6eac" stroke="#2e6eac" stroke-width="1.51"/><path d="M2449,542L2219,349L1780,1031Z" fill="#8dbcde" stroke="#8dbcde" stroke-width="1.51"/><path d="M3014,-592L2219,349L2449,542Z" fill="#91bade" stroke="#91bade" stroke-width="1.51"/><path d="M4361,3850L4598,3546L4215,3055Z" fill="#1962a9" stroke="#1962a9" stroke-width="1.51"/><path d="M4393,2297L5158,1575L4383,1478Z" fill="#487ab2" stroke="#487ab2" stroke-width="1.51"/><path d="M1087,1926L354,2426L1311,2542Z" fill="#82b7da" stroke="#82b7da" stroke-width="1.51"/><path d="M1267,3704L446,3871L1413,3996Z" fill="#6896c7" stroke="#6896c7" stroke-width="1.51"/><path d="M460,1835L354,2426L1087,1926Z" fill="#8fbede" stroke="#8fbede" stroke-width="1.51"/><path d="M454,1249L1087,1926L1339,1290Z" fill="#96c5e0" stroke="#96c5e0" stroke-width="1.51"/><path d="M454,1249L460,1835L1087,1926Z" fill="#98c4e1" stroke="#98c4e1" stroke-width="1.51"/><path d="M1903,5120L2521,3908L1995,3947Z" fill="#3f7bb8" stroke="#3f7bb8" stroke-width="1.51"/><path d="M3408,4372L4525,4323L4361,3850Z" fill="#125aa3" stroke="#125aa3" stroke-width="1.51"/><path d="M354,2426L455,3508L1311,2542Z" fill="#7eb0d6" stroke="#7eb0d6" stroke-width="1.51"/><path d="M1413,3996L1903,5120L1995,3947Z" fill="#4b81ba" stroke="#4b81ba" stroke-width="1.51"/><path d="M4598,3546L5032,2684L4215,3055Z" fill="#2465a6" stroke="#2465a6" stroke-width="1.51"/><path d="M1262,158L1339,1290L1780,1031Z" fill="#9bc7e1" stroke="#9bc7e1" stroke-width="1.51"/><path d="M460,1835L67,2195L354,2426Z" fill="#96c0e0" stroke="#96c0e0" stroke-width="1.51"/><path d="M455,3508L446,3871L1267,3704Z" fill="#739dcc" stroke="#739dcc" stroke-width="1.51"/><path d="M-33,3676L446,3871L455,3508Z" fill="#7ea1d0" stroke="#7ea1d0" stroke-width="1.51"/><path d="M354,2426L-53,2982L455,3508Z" fill="#88b1d8" stroke="#88b1d8" stroke-width="1.51"/><path d="M-540,1318L67,2195L460,1835Z" fill="#a3c9e5" stroke="#a3c9e5" stroke-width="1.51"/><path d="M4361,3850L4525,4323L4598,3546Z" fill="#12579f" stroke="#12579f" stroke-width="1.51"/><path d="M4598,3546L5517,2999L5032,2684Z" fill="#225c99" stroke="#225c99" stroke-width="1.51"/><path d="M4583,4569L4525,4323L3408,4372Z" fill="#0d549e" stroke="#0d549e" stroke-width="1.51"/><path d="M2988,4847L3511,5031L3408,4372Z" fill="#1e5ea0" stroke="#1e5ea0" stroke-width="1.51"/><path d="M446,3871L880,4577L1413,3996Z" fill="#6992c4" stroke="#6992c4" stroke-width="1.51"/><path d="M2988,4847L3081,5339L3511,5031Z" fill="#205997" stroke="#205997" stroke-width="1.51"/><path d="M880,4577L1903,5120L1413,3996Z" fill="#5782b7" stroke="#5782b7" stroke-width="1.51"/><path d="M3441,728L3014,-592L2449,542Z" fill="#88b1d9" stroke="#88b1d9" stroke-width="1.51"/><path d="M4383,1478L3940,210L3441,728Z" fill="#6e97c8" stroke="#6e97c8" stroke-width="1.51"/><path d="M4779,644L3940,210L4383,1478Z" fill="#6b8fc1" stroke="#6b8fc1" stroke-width="1.51"/><path d="M1903,5120L2841,5228L2988,4847Z" fill="#2e649d" stroke="#2e649d" stroke-width="1.51"/><path d="M67,2195L-53,2982L354,2426Z" fill="#91bbde" stroke="#91bbde" stroke-width="1.51"/><path d="M5032,2684L5158,1575L4393,2297Z" fill="#3b6fa7" stroke="#3b6fa7" stroke-width="1.51"/><path d="M2219,349L1262,158L1780,1031Z" fill="#9ac5e2" stroke="#9ac5e2" stroke-width="1.51"/><path d="M1648,-317L1262,158L2219,349Z" fill="#a4cae5" stroke="#a4cae5" stroke-width="1.51"/><path d="M3511,5031L4583,4569L3408,4372Z" fill="#13569c" stroke="#13569c" stroke-width="1.51"/><path d="M5480,3612L5517,2999L4598,3546Z" fill="#1b5391" stroke="#1b5391" stroke-width="1.51"/><path d="M5158,1575L5152,1285L4383,1478Z" fill="#527aac" stroke="#527aac" stroke-width="1.51"/><path d="M2841,5228L3081,5339L2988,4847Z" fill="#245c97" stroke="#245c97" stroke-width="1.51"/><path d="M3511,5031L4362,5184L4583,4569Z" fill="#0d4a8f" stroke="#0d4a8f" stroke-width="1.51"/><path d="M1841,5915L3081,5339L2841,5228Z" fill="#2e6199" stroke="#2e6199" stroke-width="1.51"/><path d="M5152,1285L4779,644L4383,1478Z" fill="#5d82b2" stroke="#5d82b2" stroke-width="1.51"/><path d="M-53,2982L-33,3676L455,3508Z" fill="#85a9d5" stroke="#85a9d5" stroke-width="1.51"/><path d="M446,3871L61,4251L880,4577Z" fill="#7494c6" stroke="#7494c6" stroke-width="1.51"/><path d="M5032,2684L5551,1951L5158,1575Z" fill="#3b699e" stroke="#3b699e" stroke-width="1.51"/><path d="M5158,1575L5836,1247L5152,1285Z" fill="#5274a3" stroke="#5274a3" stroke-width="1.51"/><path d="M5480,3612L4598,3546L4525,4323Z" fill="#135196" stroke="#135196" stroke-width="1.51"/><path d="M5152,1285L5836,1247L4779,644Z" fill="#5b79a5" stroke="#5b79a5" stroke-width="1.51"/><path d="M5517,2999L5551,1951L5032,2684Z" fill="#2f6299" stroke="#2f6299" stroke-width="1.51"/><path d="M2295,-833L1648,-317L2219,349Z" fill="#a1c7e4" stroke="#a1c7e4" stroke-width="1.51"/><path d="M5642,3889L5480,3612L4525,4323Z" fill="#114889" stroke="#114889" stroke-width="1.51"/><path d="M-33,3676L61,4251L446,3871Z" fill="#7e9dcd" stroke="#7e9dcd" stroke-width="1.51"/><path d="M1066,5652L1841,5915L1903,5120Z" fill="#4a71a1" stroke="#4a71a1" stroke-width="1.51"/><path d="M3940,210L3014,-592L3441,728Z" fill="#83a8d4" stroke="#83a8d4" stroke-width="1.51"/><path d="M3640,-564L3014,-592L3940,210Z" fill="#89aad6" stroke="#89aad6" stroke-width="1.51"/><path d="M4779,644L4116,-244L3940,210Z" fill="#7a95c7" stroke="#7a95c7" stroke-width="1.51"/><path d="M4583,4569L5642,3889L4525,4323Z" fill="#0b488e" stroke="#0b488e" stroke-width="1.51"/><path d="M3967,5731L4362,5184L3511,5031Z" fill="#114889" stroke="#114889" stroke-width="1.51"/><path d="M886,-193L96,525L1262,158Z" fill="#bcd7eb" stroke="#bcd7eb" stroke-width="1.51"/><path d="M1262,158L96,525L454,1249Z" fill="#b5d3e9" stroke="#b5d3e9" stroke-width="1.51"/><path d="M-540,1318L-703,2130L67,2195Z" fill="#a7cbe7" stroke="#a7cbe7" stroke-width="1.51"/><path d="M67,2195L-793,2391L-53,2982Z" fill="#97bedf" stroke="#97bedf" stroke-width="1.51"/><path d="M1648,-317L886,-193L1262,158Z" fill="#b4d3e9" stroke="#b4d3e9" stroke-width="1.51"/><path d="M366,-427L886,-193L947,-964Z" fill="#c7deef" stroke="#c7deef" stroke-width="1.51"/><path d="M4116,-244L3640,-564L3940,210Z" fill="#84a1cf" stroke="#84a1cf" stroke-width="1.51"/><path d="M-585,18L-18,553L96,525Z" fill="#cbdef1" stroke="#cbdef1" stroke-width="1.51"/><path d="M96,525L-18,553L454,1249Z" fill="#bcd7eb" stroke="#bcd7eb" stroke-width="1.51"/><path d="M5480,3612L5642,3889L5517,2999Z" fill="#175090" stroke="#175090" stroke-width="1.51"/><path d="M5517,2999L5836,1247L5551,1951Z" fill="#3b699e" stroke="#3b699e" stroke-width="1.51"/><path d="M5859,5051L5642,3889L4583,4569Z" fill="#093e80" stroke="#093e80" stroke-width="1.51"/><path d="M-540,1318L460,1835L454,1249Z" fill="#aacde6" stroke="#aacde6" stroke-width="1.51"/><path d="M-53,2982L-732,3543L-33,3676Z" fill="#8aadd6" stroke="#8aadd6" stroke-width="1.51"/><path d="M-33,3676L-732,3543L61,4251Z" fill="#85a3d1" stroke="#85a3d1" stroke-width="1.51"/><path d="M-18,553L-540,1318L454,1249Z" fill="#b8d6ea" stroke="#b8d6ea" stroke-width="1.51"/><path d="M3014,-592L2295,-833L2219,349Z" fill="#99c0e0" stroke="#99c0e0" stroke-width="1.51"/><path d="M2229,-965L2295,-833L3174,-1280Z" fill="#a3c5e3" stroke="#a3c5e3" stroke-width="1.51"/><path d="M-768,1443L-793,2391L-703,2130Z" fill="#a9cde7" stroke="#a9cde7" stroke-width="1.51"/><path d="M-703,2130L-793,2391L67,2195Z" fill="#a0c6e3" stroke="#a0c6e3" stroke-width="1.51"/><path d="M3081,5339L3967,5731L3511,5031Z" fill="#175090" stroke="#175090" stroke-width="1.51"/><path d="M1903,5120L1841,5915L2841,5228Z" fill="#38689d" stroke="#38689d" stroke-width="1.51"/><path d="M1066,5652L1903,5120L880,4577Z" fill="#5577a6" stroke="#5577a6" stroke-width="1.51"/><path d="M4362,5184L5373,5437L4583,4569Z" fill="#093b7b" stroke="#093b7b" stroke-width="1.51"/><path d="M1841,5915L3967,5731L3081,5339Z" fill="#245b95" stroke="#245b95" stroke-width="1.51"/><path d="M5551,1951L5836,1247L5158,1575Z" fill="#4b71a1" stroke="#4b71a1" stroke-width="1.51"/><path d="M4779,644L4581,-591L4116,-244Z" fill="#7c93c3" stroke="#7c93c3" stroke-width="1.51"/><path d="M5642,3889L5836,1247L5517,2999Z" fill="#2a5f98" stroke="#2a5f98" stroke-width="1.51"/><path d="M376,5303L1066,5652L880,4577Z" fill="#627ca8" stroke="#627ca8" stroke-width="1.51"/><path d="M-793,2391L-732,3543L-53,2982Z" fill="#94b9dc" stroke="#94b9dc" stroke-width="1.51"/><path d="M61,4251L205,5101L880,4577Z" fill="#728cbc" stroke="#728cbc" stroke-width="1.51"/><path d="M-382,4953L205,5101L61,4251Z" fill="#788cbb" stroke="#788cbb" stroke-width="1.51"/><path d="M2295,-833L2229,-965L1648,-317Z" fill="#a7cbe6" stroke="#a7cbe6" stroke-width="1.51"/><path d="M3174,-1280L2295,-833L3014,-592Z" fill="#9cbfe0" stroke="#9cbfe0" stroke-width="1.51"/><path d="M-1066,703L-768,1443L-540,1318Z" fill="#c1dcec" stroke="#c1dcec" stroke-width="1.51"/><path d="M-540,1318L-768,1443L-703,2130Z" fill="#b2d2e9" stroke="#b2d2e9" stroke-width="1.51"/><path d="M205,5101L376,5303L880,4577Z" fill="#6c83b0" stroke="#6c83b0" stroke-width="1.51"/><path d="M3640,-564L3174,-1280L3014,-592Z" fill="#94b4db" stroke="#94b4db" stroke-width="1.51"/><path d="M4116,-244L4391,-713L3640,-564Z" fill="#87a1ce" stroke="#87a1ce" stroke-width="1.51"/><path d="M5269,-804L4581,-591L4779,644Z" fill="#7a8cb8" stroke="#7a8cb8" stroke-width="1.51"/><path d="M3967,5731L4623,5641L4362,5184Z" fill="#0a4184" stroke="#0a4184" stroke-width="1.51"/><path d="M4581,-591L4391,-713L4116,-244Z" fill="#849aca" stroke="#849aca" stroke-width="1.51"/><path d="M-18,553L-1066,703L-540,1318Z" fill="#c4ddee" stroke="#c4ddee" stroke-width="1.51"/><path d="M886,-193L366,-427L96,525Z" fill="#c7dcef" stroke="#c7dcef" stroke-width="1.51"/><path d="M947,-964L886,-193L1648,-317Z" fill="#bcd9eb" stroke="#bcd9eb" stroke-width="1.51"/><path d="M205,5101L-510,5359L376,5303Z" fill="#7282ac" stroke="#7282ac" stroke-width="1.51"/><path d="M376,5303L-510,5359L1066,5652Z" fill="#6d7fab" stroke="#6d7fab" stroke-width="1.51"/><path d="M-1121,3837L-382,4953L61,4251Z" fill="#849ac9" stroke="#849ac9" stroke-width="1.51"/><path d="M2229,-965L947,-964L1648,-317Z" fill="#b3d4e9" stroke="#b3d4e9" stroke-width="1.51"/><path d="M4391,-713L3174,-1280L3640,-564Z" fill="#90abd5" stroke="#90abd5" stroke-width="1.51"/><path d="M3174,-1280L947,-964L2229,-965Z" fill="#accde7" stroke="#accde7" stroke-width="1.51"/><path d="M-732,3543L-1121,3837L61,4251Z" fill="#8aa6d1" stroke="#8aa6d1" stroke-width="1.51"/><path d="M-793,2391L-1121,3837L-732,3543Z" fill="#96b5db" stroke="#96b5db" stroke-width="1.51"/><path d="M-1066,703L-1121,3837L-793,2391Z" fill="#a7cae5" stroke="#a7cae5" stroke-width="1.51"/><path d="M4623,5641L5373,5437L4362,5184Z" fill="#093877" stroke="#093877" stroke-width="1.51"/><path d="M-675,-428L-585,18L366,-427Z" fill="#d7e6f4" stroke="#d7e6f4" stroke-width="1.51"/><path d="M366,-427L-585,18L96,525Z" fill="#cee0f1" stroke="#cee0f1" stroke-width="1.51"/><path d="M-768,1443L-1066,703L-793,2391Z" fill="#b8d6ea" stroke="#b8d6ea" stroke-width="1.51"/><path d="M5836,1247L5906,112L4779,644Z" fill="#657ca8" stroke="#657ca8" stroke-width="1.51"/><path d="M4581,-591L5156,-833L4391,-713Z" fill="#8394c0" stroke="#8394c0" stroke-width="1.51"/><path d="M5373,5437L5859,5051L4583,4569Z" fill="#083370" stroke="#083370" stroke-width="1.51"/><path d="M5642,3889L5859,5051L5836,1247Z" fill="#1a5391" stroke="#1a5391" stroke-width="1.51"/><path d="M5836,1247L5921,61L5906,112Z" fill="#6a7eaa" stroke="#6a7eaa" stroke-width="1.51"/><path d="M-585,18L-1066,703L-18,553Z" fill="#cfe1f1" stroke="#cfe1f1" stroke-width="1.51"/><path d="M5269,-804L5156,-833L4581,-591Z" fill="#808db7" stroke="#808db7" stroke-width="1.51"/><path d="M5859,5051L5921,61L5836,1247Z" fill="#3a699d" stroke="#3a699d" stroke-width="1.51"/><path d="M947,-964L123,-841L366,-427Z" fill="#d0e3f3" stroke="#d0e3f3" stroke-width="1.51"/><path d="M-382,4953L-510,5359L205,5101Z" fill="#7786b0" stroke="#7786b0" stroke-width="1.51"/><path d="M1066,5652L-1001,5522L1841,5915Z" fill="#667da8" stroke="#667da8" stroke-width="1.51"/><path d="M-1312,4975L-510,5359L-382,4953Z" fill="#7f8bb3" stroke="#7f8bb3" stroke-width="1.51"/><path d="M5269,-804L4779,644L5906,112Z" fill="#7383ad" stroke="#7383ad" stroke-width="1.51"/><path d="M4391,-713L5156,-833L3174,-1280Z" fill="#8ca0cd" stroke="#8ca0cd" stroke-width="1.51"/><path d="M5921,61L5269,-804L5906,112Z" fill="#7584ae" stroke="#7584ae" stroke-width="1.51"/><path d="M123,-841L-675,-428L366,-427Z" fill="#d8e6f4" stroke="#d8e6f4" stroke-width="1.51"/><path d="M-585,18L-675,-428L-1066,703Z" fill="#d8e7f5" stroke="#d8e7f5" stroke-width="1.51"/><path d="M-1121,3837L-1312,4975L-382,4953Z" fill="#8898c5" stroke="#8898c5" stroke-width="1.51"/><path d="M-1066,703L-1312,4975L-1121,3837Z" fill="#9cb9dd" stroke="#9cb9dd" stroke-width="1.51"/><path d="M-510,5359L-1001,5522L1066,5652Z" fill="#7583ad" stroke="#7583ad" stroke-width="1.51"/><path d="M-1312,4975L-1001,5522L-510,5359Z" fill="#808bb1" stroke="#808bb1" stroke-width="1.51"/><path d="M123,-841L-735,-993L-675,-428Z" fill="#e0ecf8" stroke="#e0ecf8" stroke-width="1.51"/><path d="M947,-964L-197,-1331L123,-841Z" fill="#d9e8f6" stroke="#d9e8f6" stroke-width="1.51"/><path d="M3174,-1280L-197,-1331L947,-964Z" fill="#c3dded" stroke="#c3dded" stroke-width="1.51"/><path d="M-197,-1331L-735,-993L123,-841Z" fill="#e2edf8" stroke="#e2edf8" stroke-width="1.51"/><path d="M-675,-428L-735,-993L-1066,703Z" fill="#deeaf7" stroke="#deeaf7" stroke-width="1.51"/></svg>